<?xml version="1.0" standalone="no"?>
<!DOCTYPE svg PUBLIC "-//W3C//DTD SVG 20010904//EN"
 "http://www.w3.org/TR/2001/REC-SVG-20010904/DTD/svg10.dtd">
<svg version="1.0" xmlns="http://www.w3.org/2000/svg"
 width="241.000000pt" height="297.000000pt" viewBox="0 0 241.000000 297.000000"
 preserveAspectRatio="xMidYMid meet">

<g transform="translate(0.000000,297.000000) scale(0.100000,-0.100000)"
fill="#000000" stroke="none">
<path d="M0 1485 l0 -1485 1205 0 1205 0 0 1485 0 1485 -1205 0 -1205 0 0
-1485z m1702 778 c17 -15 18 -42 18 -428 l0 -411 106 -145 c59 -79 133 -180
165 -223 l59 -80 0 -151 c0 -104 -4 -155 -12 -163 -17 -17 -1649 -17 -1666 0
-8 8 -12 58 -12 161 l0 149 165 226 165 226 0 406 c0 351 2 409 16 428 l15 22
481 0 c434 0 483 -2 500 -17z"/>
<path d="M919 2051 l-24 -20 23 -40 c28 -51 28 -96 -3 -146 -31 -51 -33 -131
-5 -193 17 -37 23 -43 46 -40 43 5 51 28 30 90 l-19 53 32 59 c37 70 40 128
11 185 -20 41 -46 71 -60 71 -4 0 -18 -9 -31 -19z"/>
<path d="M1165 2050 c-18 -20 -18 -22 3 -66 29 -58 28 -77 -8 -148 -36 -71
-37 -105 -5 -173 19 -43 29 -53 48 -53 48 0 56 33 26 108 -12 30 -11 37 19 96
36 70 40 117 17 174 -18 41 -52 82 -70 82 -7 0 -20 -9 -30 -20z"/>
<path d="M1418 2059 c-24 -13 -23 -47 2 -84 27 -41 25 -63 -10 -130 -35 -67
-38 -121 -11 -181 22 -49 34 -58 65 -50 30 7 37 35 20 76 -20 46 -17 76 10
123 45 78 43 145 -7 218 -25 37 -43 44 -69 28z"/>
<path d="M628 1188 l-157 -213 197 -3 198 -2 32 -55 33 -55 274 0 274 0 33 55
33 54 198 3 198 3 -157 213 -156 212 -422 0 -422 0 -156 -212z m781 91 c164
-42 255 -107 285 -206 7 -23 6 -23 -81 -23 -99 -1 -104 -3 -152 -72 l-32 -48
-224 0 -224 0 -27 45 c-39 68 -54 75 -161 75 -85 0 -93 2 -93 19 0 29 37 86
73 114 149 114 410 153 636 96z"/>
<path d="M1283 1218 c-18 -5 -33 -15 -33 -23 0 -7 15 -18 33 -24 42 -14 92 -1
92 24 0 24 -46 35 -92 23z"/>
<path d="M1037 1214 c-16 -16 -5 -33 26 -43 43 -14 92 -1 92 25 0 16 -8 19
-55 22 -31 2 -59 0 -63 -4z"/>
<path d="M845 1146 c-29 -21 -3 -46 45 -46 48 0 70 8 70 26 0 30 -82 44 -115
20z"/>
<path d="M1473 1150 c-28 -11 -29 -26 -4 -40 38 -20 111 -10 111 16 0 29 -61
43 -107 24z"/>
<path d="M1044 1065 c-19 -15 -19 -15 0 -30 11 -8 34 -15 51 -15 17 0 40 7 51
15 19 15 19 15 0 30 -11 8 -34 15 -51 15 -17 0 -40 -7 -51 -15z"/>
<path d="M1264 1065 c-19 -15 -19 -15 0 -30 33 -25 116 -18 116 11 0 32 -81
46 -116 19z"/>
</g>
</svg>
