<?xml version="1.0" standalone="no"?>
<!DOCTYPE svg PUBLIC "-//W3C//DTD SVG 20010904//EN"
 "http://www.w3.org/TR/2001/REC-SVG-20010904/DTD/svg10.dtd">
<svg version="1.0" xmlns="http://www.w3.org/2000/svg"
 width="418.000000pt" height="195.000000pt" viewBox="0 0 418.000000 195.000000"
 preserveAspectRatio="xMidYMid meet">

<g transform="translate(0.000000,195.000000) scale(0.100000,-0.100000)"
fill="#000000" stroke="none">
<path d="M2730 1716 c-344 -40 -618 -75 -610 -79 8 -4 0 -5 -18 -2 -26 4 -255
-20 -699 -72 -61 -7 -115 3 -92 18 7 5 21 9 29 9 13 0 13 -1 0 -11 -20 -13 48
-4 168 24 l92 22 -352 1 c-238 1 -416 6 -545 17 -226 20 -216 20 -208 7 3 -5
-1 -10 -10 -10 -9 0 -13 5 -10 10 3 6 4 10 1 10 -14 0 -161 -73 -168 -83 -4
-7 -8 -9 -8 -4 0 4 -14 0 -31 -8 -22 -12 -29 -21 -25 -36 4 -10 9 -28 12 -39
3 -11 12 -20 21 -20 11 0 13 -5 8 -17 -5 -10 -11 -74 -15 -143 -5 -88 -14
-143 -29 -185 -23 -65 -28 -184 -11 -260 14 -60 12 -156 -5 -211 -10 -33 -11
-50 -4 -55 8 -4 7 -18 0 -45 -22 -80 -3 -191 40 -230 23 -21 25 -34 4 -34 -11
0 -15 -12 -15 -47 l0 -48 208 -1 c149 -1 246 -7 347 -21 128 -18 150 -19 260
-6 66 7 127 13 135 14 8 0 171 14 361 32 255 23 346 34 342 43 -2 7 1 15 7 19
6 4 9 1 8 -7 -2 -9 12 -14 47 -17 l50 -3 -44 -13 c-24 -8 -49 -11 -56 -9 -7 3
-16 0 -21 -7 -5 -9 8 -10 62 -5 88 10 116 9 125 -5 5 -8 39 -10 115 -5 173 10
405 9 456 -2 34 -6 49 -6 52 2 3 7 5 6 5 -2 1 -7 6 -10 11 -7 6 4 17 2 24 -4
7 -6 64 -15 128 -21 114 -10 237 -3 403 21 39 6 90 13 115 15 25 3 68 9 95 14
28 6 95 15 150 20 55 6 108 13 117 16 21 6 73 86 93 143 21 61 36 205 36 343
-1 69 5 146 14 190 30 138 19 240 -36 338 l-22 38 22 30 c11 17 21 33 21 36 0
3 -26 6 -59 6 -40 0 -62 5 -71 15 -7 9 -11 17 -9 18 2 2 25 16 51 30 79 46 98
93 56 142 -28 31 -89 43 -273 50 l-130 5 3 44 c4 50 -25 92 -68 100 -14 2
-306 -28 -650 -68z m-2453 -200 c0 -19 -4 -33 -8 -31 -9 6 -18 53 -11 60 13
13 20 2 19 -29z m2978 -56 c-3 -5 -10 -10 -16 -10 -5 0 -9 5 -9 10 0 6 7 10
16 10 8 0 12 -4 9 -10z m-2745 -65 c-35 -35 -66 -62 -68 -60 -3 2 1 31 9 65
l13 60 55 0 55 0 -64 -65z m470 60 c0 -2 -5 -16 -12 -30 -13 -30 -34 -33 -41
-5 -3 11 -1 18 4 14 5 -3 9 2 9 10 0 9 9 16 20 16 11 0 20 -2 20 -5z m-24
-150 c137 -31 257 -58 266 -61 16 -5 46 -51 53 -84 2 -8 28 -80 59 -159 44
-114 53 -148 45 -163 -10 -19 -10 -19 15 -3 16 11 26 13 26 6 0 -6 -7 -14 -15
-17 -8 -4 -15 -12 -15 -19 0 -7 -12 -15 -27 -19 -30 -6 -172 -131 -161 -141 3
-4 18 1 32 10 14 10 26 13 26 7 0 -5 -15 -17 -32 -26 -18 -9 -46 -26 -63 -36
-16 -11 -37 -23 -45 -27 -8 -3 -33 -21 -55 -39 -49 -39 -105 -52 -135 -31 -13
9 -17 16 -10 19 22 7 -373 141 -417 142 -24 1 -43 3 -43 6 1 12 28 39 33 33 4
-3 6 11 4 32 l-2 38 145 102 c79 56 146 107 148 114 2 6 -31 75 -73 152 l-76
141 26 39 c14 21 29 39 33 39 5 0 120 -25 258 -55z m2409 -305 c81 0 131 -112
77 -172 -8 -10 -10 -18 -4 -18 12 0 25 -49 27 -100 l0 -35 -51 0 c-41 0 -50 3
-42 12 17 21 -9 93 -33 93 -5 0 -9 -22 -9 -50 l0 -50 -39 0 c-44 0 -52 11 -46
70 7 80 7 197 0 223 -6 23 -4 27 14 27 12 0 21 4 21 10 0 6 9 6 26 0 14 -6 41
-10 59 -10z m-1477 2 c50 -2 52 -3 52 -29 0 -34 -14 -58 -28 -49 -22 14 -32
-21 -25 -90 7 -60 11 -69 30 -72 26 -4 32 -17 26 -57 l-4 -30 -95 3 -94 3 0
39 c0 32 4 39 23 42 19 3 23 10 27 60 6 70 -1 104 -22 100 -11 -2 -17 8 -20
32 -5 48 -2 53 40 52 20 -1 61 -3 90 -4z m640 -43 c-2 -25 -7 -33 -20 -31 -26
4 -36 -27 -30 -96 4 -55 7 -63 28 -68 20 -5 24 -12 24 -45 l0 -39 -95 0 -95 0
0 40 c0 36 3 40 24 40 23 0 24 4 28 60 4 76 -3 106 -25 102 -13 -2 -17 5 -17
28 0 16 0 33 0 38 0 9 162 19 173 11 5 -4 7 -22 5 -40z m625 -5 l-5 -41 -56 1
c-58 1 -87 -20 -35 -26 24 -3 28 -8 31 -40 3 -37 2 -38 -28 -38 -27 0 -31 -3
-28 -22 3 -20 10 -23 61 -26 l57 -3 0 -39 0 -40 -74 0 c-63 0 -79 3 -103 24
-15 12 -34 21 -40 19 -16 -6 -18 63 -3 72 6 3 10 34 10 68 0 59 10 87 45 123
6 6 42 12 80 13 38 1 72 4 74 7 12 12 19 -15 14 -52z m-1552 25 c41 -29 61
-73 61 -131 -1 -68 -18 -113 -53 -143 -27 -22 -40 -25 -105 -25 l-75 0 2 138
c2 85 6 140 13 144 8 5 7 8 -1 8 -7 0 -13 7 -13 15 0 25 134 21 171 -6z m519
-74 c0 -77 3 -93 14 -89 10 4 16 -5 21 -26 5 -21 12 -30 23 -29 10 1 29 1 45
0 25 -1 27 -4 27 -41 l0 -40 -75 0 c-68 0 -77 2 -107 29 -31 28 -32 31 -36
122 -2 58 1 108 9 131 11 34 16 38 46 38 l33 0 0 -95z m581 53 c6 -24 16 -56
22 -72 l11 -29 9 29 c4 16 15 48 23 72 15 41 17 42 60 42 42 0 44 -1 38 -25
-17 -69 -43 -140 -51 -142 -5 -2 -7 -17 -5 -34 3 -19 -2 -36 -13 -49 -9 -10
-14 -24 -10 -30 3 -6 2 -9 -3 -8 -5 2 -19 -8 -31 -22 -15 -17 -24 -21 -27 -12
-3 6 -11 12 -17 12 -7 0 -17 12 -24 28 -12 28 -83 264 -83 276 0 3 20 6 45 6
44 0 44 -1 56 -42z m1075 17 c1 -11 3 -36 4 -55 4 -67 0 -81 -32 -111 -28 -25
-33 -37 -34 -77 l0 -47 -42 -3 -42 -3 0 45 c0 51 -8 78 -21 71 -18 -12 -50 74
-48 133 2 51 4 58 22 60 32 2 45 -15 52 -68 7 -51 26 -70 52 -48 10 8 13 28
11 70 l-4 59 41 -3 c32 -2 40 -7 41 -23z m-453 -312 c-7 -2 -19 -2 -25 0 -7 3
-2 5 12 5 14 0 19 -2 13 -5z m52 -70 c1 -21 5 -46 9 -55 7 -15 5 -16 -23 -5
-23 8 -29 16 -25 27 4 8 8 25 8 37 1 11 4 19 8 17 4 -2 9 0 13 6 9 15 10 13
10 -27z m-447 -55 c-6 -16 -120 -34 -145 -23 -16 8 4 13 140 34 5 0 7 -5 5
-11z m-423 -68 c-3 -5 -25 -10 -48 -9 -36 1 -38 2 -17 9 36 12 72 12 65 0z
m-1377 -27 c-2 -13 -21 -20 -78 -29 -104 -17 -109 -17 -76 9 37 28 60 35 114
36 36 1 43 -2 40 -16z m-213 -43 c3 -6 -5 -10 -19 -10 -13 0 -33 -3 -43 -7
-16 -6 -16 -5 -4 10 15 19 56 23 66 7z m2420 -48 c-10 -9 -155 -33 -190 -31
-11 0 7 9 40 19 62 18 166 27 150 12z m-3025 -142 c0 -5 -7 -10 -16 -10 -8 0
-12 5 -9 10 3 6 10 10 16 10 5 0 9 -4 9 -10z m3010 0 c-20 -13 -43 -13 -35 0
3 6 16 10 28 10 18 0 19 -2 7 -10z"/>
<path d="M696 1315 c-3 -8 0 -15 6 -15 6 0 19 -6 27 -14 23 -20 414 -108 444
-101 34 9 42 32 14 39 -36 8 -477 106 -481 106 -2 0 -6 -7 -10 -15z"/>
<path d="M712 1248 c-8 -10 3 -40 49 -122 32 -60 59 -113 59 -118 0 -4 7 -8
15 -8 8 0 15 -5 15 -12 0 -8 3 -9 10 -2 7 7 -12 52 -56 134 -74 142 -77 146
-92 128z"/>
<path d="M777 1219 c11 -19 42 -76 68 -126 26 -51 51 -93 57 -93 5 0 6 6 3 13
-4 6 0 4 9 -6 10 -13 21 -17 36 -12 14 4 26 2 33 -8 11 -14 296 -99 306 -91 3
2 -96 244 -103 251 -1 1 -90 23 -196 48 -107 25 -204 49 -214 52 -18 5 -18 4
1 -28z"/>
<path d="M1217 1184 c-13 -14 105 -324 125 -324 13 0 11 6 -53 170 -69 173
-64 162 -72 154z"/>
<path d="M881 961 c-6 -11 -11 -22 -11 -24 0 -3 39 -7 88 -10 102 -6 147 -18
193 -52 48 -34 79 -47 119 -49 28 -1 36 3 38 20 3 19 -11 25 -152 62 -85 23
-162 39 -172 35 -11 -4 -15 -3 -11 4 4 6 -5 14 -21 17 -15 4 -35 9 -44 12 -10
3 -21 -3 -27 -15z"/>
<path d="M740 909 c-47 -33 -85 -65 -85 -70 0 -5 -7 -14 -15 -19 -8 -5 -11
-12 -6 -17 7 -8 30 21 24 32 -2 4 77 46 162 85 16 7 27 50 13 50 -4 0 -46 -27
-93 -61z"/>
<path d="M825 886 c-22 -7 -55 -20 -73 -30 -33 -17 -33 -17 -16 -43 15 -24 15
-27 1 -38 -13 -9 -11 -14 14 -30 28 -19 39 -45 19 -45 -5 0 -10 -4 -10 -9 0
-14 179 -71 220 -71 19 0 42 5 50 10 11 8 6 9 -19 8 -36 -3 -47 8 -32 31 8 12
14 12 38 -4 22 -15 25 -15 15 -2 -8 9 -11 21 -7 27 9 15 45 12 51 -5 7 -18 15
-19 39 -2 17 13 17 14 -6 13 -15 -1 -25 5 -27 17 -4 19 23 23 47 8 8 -5 18 -5
25 0 6 5 20 16 30 23 29 20 13 61 -37 97 -32 24 -43 27 -45 16 -4 -19 -27 -28
-47 -21 -18 7 -20 30 -3 40 17 10 -23 22 -78 23 -34 1 -43 -3 -47 -20 -7 -26
-53 -23 -51 4 2 20 2 20 -51 3z m181 -10 c10 -8 16 -18 11 -22 -4 -4 -13 -2
-19 4 -7 7 -20 12 -30 12 -10 0 -18 5 -18 10 0 15 33 12 56 -4z m-150 -13 c3
-10 10 -26 16 -37 6 -12 6 -22 -1 -29 -14 -14 -42 0 -39 20 2 12 -4 19 -19 21
-27 4 -30 17 -5 31 26 15 42 13 48 -6z m91 -38 c-7 -14 -15 -25 -19 -25 -12 0
-9 35 4 48 18 18 27 4 15 -23z m-161 -10 c22 -34 8 -47 -16 -15 -22 28 -25 40
-10 40 5 0 17 -11 26 -25z m221 -1 c5 -15 -28 -27 -40 -15 -5 5 -6 14 -2 21 8
13 37 9 42 -6z m109 7 c5 -5 20 -11 34 -13 31 -4 33 -32 3 -36 -16 -2 -23 2
-23 12 0 12 -5 14 -25 6 -21 -8 -25 -7 -25 9 0 29 17 39 36 22z m-56 -10 c0
-13 -29 -35 -37 -28 -7 8 15 37 28 37 5 0 9 -4 9 -9z m-131 -40 c14 -14 32
-19 65 -18 25 1 51 -4 58 -11 9 -9 5 -12 -24 -12 -27 0 -37 -5 -41 -20 -3 -12
-14 -20 -26 -20 -22 0 -41 27 -34 47 2 7 -5 18 -16 25 -12 7 -21 16 -21 20 0
14 20 8 39 -11z m-81 -23 c-3 -7 -15 -13 -28 -13 -13 0 -25 6 -27 13 -3 8 6
12 27 12 21 0 30 -4 28 -12z m46 6 c23 -9 20 -31 -6 -37 -28 -8 -37 -1 -31 23
6 21 12 24 37 14z m266 -4 c0 -5 -13 -10 -30 -10 -16 0 -30 5 -30 10 0 6 14
10 30 10 17 0 30 -4 30 -10z m-251 -66 c34 -17 37 -39 5 -39 -12 0 -18 6 -18
18 1 13 -6 17 -32 17 -19 0 -34 5 -34 10 0 15 43 12 79 -6z"/>
<path d="M690 815 c-8 -9 -8 -15 -2 -15 12 0 26 19 19 26 -2 2 -10 -2 -17 -11z"/>
<path d="M1226 796 c3 -8 12 -12 20 -9 17 6 9 23 -11 23 -8 0 -12 -6 -9 -14z"/>
<path d="M1265 774 c-39 -35 -39 -35 -7 -17 35 19 71 53 56 53 -5 -1 -27 -17
-49 -36z"/>
<path d="M581 781 c-12 -12 -21 -16 -21 -10 0 5 -5 7 -10 4 -16 -10 -1 -25 24
-25 29 0 54 26 39 41 -8 8 -17 5 -32 -10z"/>
<path d="M670 779 c0 -5 5 -7 10 -4 6 3 10 8 10 11 0 2 -4 4 -10 4 -5 0 -10
-5 -10 -11z"/>
<path d="M625 751 c-3 -5 -1 -12 5 -16 5 -3 10 1 10 9 0 18 -6 21 -15 7z"/>
<path d="M676 751 c-11 -17 6 -40 36 -50 38 -14 48 -14 26 0 -9 5 -15 16 -12
23 3 8 -3 19 -15 25 -24 13 -28 14 -35 2z"/>
<path d="M544 718 c-4 -6 1 -17 12 -25 16 -12 20 -12 30 2 15 21 27 19 20 -3
-5 -16 15 -26 143 -71 127 -45 152 -51 168 -40 22 13 58 5 48 -11 -4 -6 -16
-8 -28 -4 -35 11 -10 -9 28 -22 33 -11 35 -10 35 11 0 26 5 23 -190 90 -74 26
-159 55 -189 66 -63 22 -68 23 -77 7z"/>
<path d="M1175 701 c-6 -11 9 -23 19 -14 9 9 7 23 -3 23 -6 0 -12 -4 -16 -9z"/>
<path d="M1133 660 c-3 -11 -9 -17 -15 -14 -9 6 -75 -39 -90 -60 -11 -16 -9
-48 2 -41 6 4 7 11 4 17 -5 7 -2 8 5 4 8 -5 14 0 18 13 3 12 11 20 18 19 11
-3 95 65 95 77 0 15 -33 2 -37 -15z"/>
<path d="M1055 650 c-3 -5 -2 -10 4 -10 5 0 13 5 16 10 3 6 2 10 -4 10 -5 0
-13 -4 -16 -10z"/>
<path d="M1170 630 c-9 -6 -10 -10 -3 -10 6 0 15 5 18 10 8 12 4 12 -15 0z"/>
<path d="M945 510 c3 -5 14 -10 23 -10 15 0 15 2 2 10 -20 13 -33 13 -25 0z"/>
<path d="M3336 913 c-3 -3 -6 -15 -6 -25 0 -14 6 -19 22 -16 12 2 23 8 25 15
5 13 -31 36 -41 26z"/>
<path d="M1517 843 c3 -43 7 -79 8 -81 1 -1 9 0 18 4 9 3 22 24 27 45 13 48
-10 109 -41 109 -17 0 -18 -6 -12 -77z"/>
<path d="M2120 781 c0 -6 4 -13 10 -16 6 -3 7 1 4 9 -7 18 -14 21 -14 7z"/>
<path d="M1858 213 c7 -3 16 -2 19 1 4 3 -2 6 -13 5 -11 0 -14 -3 -6 -6z"/>
<path d="M1804 201 c3 -4 -5 -6 -17 -4 -12 2 -40 0 -62 -5 -35 -9 -29 -10 53
-11 61 -1 92 3 92 10 0 6 -7 9 -15 6 -8 -4 -17 -2 -20 3 -4 6 -13 10 -21 10
-8 0 -13 -4 -10 -9z"/>
</g>
</svg>
